<?xml version="1.0" encoding="iso-8859-1"?>
<!-- Generator: Adobe Illustrator 19.0.0, SVG Export Plug-In . SVG Version: 6.00 Build 0)  -->
<svg version="1.1" id="Capa_1" xmlns="http://www.w3.org/2000/svg" xmlns:xlink="http://www.w3.org/1999/xlink" x="0px" y="0px"
	 viewBox="0 0 512 512" style="enable-background:new 0 0 512 512;" xml:space="preserve">
<g transform="translate(0 -1)">
	<g>
		<path style="fill:#FFA800;" d="M503.467,231.403c-0.043,28.259-22.941,51.157-51.2,51.2H59.733
			c-28.268-0.022-51.178-22.932-51.2-51.2c0.043-28.259,22.941-51.157,51.2-51.2l1.621-0.768c-0.637-0.895-1.208-1.837-1.707-2.816
			c-0.683-1.109-1.28-2.218-1.877-3.413c-1.363-2.572-2.505-5.256-3.413-8.021c-0.341-0.939-0.597-1.792-0.853-2.731
			c-0.432-1.37-0.774-2.767-1.024-4.181c-0.196-0.666-0.311-1.354-0.341-2.048c-0.26-1.036-0.431-2.092-0.512-3.157
			c-0.113-0.504-0.142-1.023-0.085-1.536c-0.244-1.81-0.358-3.635-0.341-5.461c-0.012-15.846,6.278-31.046,17.483-42.251
			s26.405-17.494,42.251-17.483c1.365,0,2.816,0.085,4.181,0.171c0.944,0,1.887,0.086,2.816,0.256
			c2.625,0.261,5.223,0.746,7.765,1.451c1.188,0.263,2.357,0.605,3.499,1.024c1.448,0.437,2.872,0.949,4.267,1.536
			c1.195,0.512,2.475,1.025,3.669,1.621c1.485,0.68,2.911,1.479,4.267,2.389c1.28,0.768,2.56,1.536,3.755,2.389
			c-0.071-0.766-0.1-1.535-0.085-2.304c-0.012-15.846,6.278-31.046,17.483-42.251c11.205-11.205,26.405-17.494,42.251-17.483
			c2.053-0.014,4.105,0.1,6.144,0.341c1.963,0.171,4.011,0.512,5.888,0.853h0.085c1.621,0.341,3.157,0.768,4.693,1.195
			c0.695,0.189,1.379,0.417,2.048,0.683c1.536,0.512,3.072,1.024,4.523,1.621c1.536,0.683,3.072,1.451,4.608,2.219
			c0.351,0.232,0.722,0.432,1.109,0.597c1.451,0.853,2.901,1.707,4.267,2.645c0.044,0.049,0.105,0.079,0.171,0.085
			c1.536,1.109,3.072,2.218,4.437,3.413c1.501,1.189,2.926,2.472,4.267,3.84l0.085,0.085c1.262,1.275,2.459,2.613,3.584,4.011
			c2.182,2.527,4.098,5.272,5.717,8.192c9.294-8.232,21.291-12.758,33.707-12.715c28.268,0.022,51.178,22.932,51.2,51.2v0.683
			c10.347-6.073,22.136-9.256,34.133-9.216c18.107-0.005,35.474,7.186,48.277,19.989c12.804,12.804,19.994,30.17,19.989,48.277
			c-0.005,4.294-0.405,8.579-1.195,12.8v4.267h9.728C480.534,180.226,503.444,203.136,503.467,231.403z"/>
		<path style="fill:#FFA800;" d="M486.4,269.462v115.541c0.177,9.093-4.573,17.572-12.42,22.17s-17.565,4.598-25.412,0
			c-7.847-4.598-12.597-13.077-12.42-22.17V350.87c0.177-9.093-4.573-17.572-12.42-22.17s-17.565-4.598-25.412,0
			s-12.597,13.077-12.42,22.17v82.517c0.177,9.093-4.573,17.572-12.42,22.17s-17.565,4.598-25.412,0s-12.597-13.077-12.42-22.17
			v-48.384c0.177-9.093-4.573-17.572-12.42-22.17c-7.847-4.598-17.565-4.598-25.412,0c-7.847,4.598-12.597,13.077-12.42,22.17
			v68.267c0.177,9.093-4.573,17.572-12.42,22.17c-7.847,4.598-17.565,4.598-25.412,0c-7.847-4.598-12.597-13.077-12.42-22.17
			v-68.267c0.177-9.093-4.573-17.572-12.42-22.17s-17.565-4.598-25.412,0c-7.847,4.598-12.597,13.077-12.42,22.17
			c0.177,9.093-4.573,17.572-12.42,22.17c-7.847,4.598-17.565,4.598-25.412,0c-7.847-4.598-12.597-13.077-12.42-22.17v-8.533
			c0.177-9.093-4.573-17.572-12.42-22.17c-7.847-4.598-17.565-4.598-25.412,0s-12.597,13.077-12.42,22.17v42.667
			c0.177,9.093-4.572,17.573-12.419,22.172c-7.847,4.599-17.566,4.599-25.413,0c-7.847-4.599-12.597-13.078-12.419-22.172V269.462
			H486.4z"/>
	</g>
	<path style="fill:#FFFFFF;" d="M123.648,87.787c-1.672,0.336-3.324,0.763-4.949,1.28c-1.621,0.512-3.242,1.109-4.779,1.707
		c-1.536,0.683-3.072,1.365-4.523,2.133c-1.268,0.599-2.494,1.283-3.669,2.048l-1.28,0.768c-0.933,0.518-1.818,1.118-2.645,1.792
		c-1.267,0.843-2.465,1.784-3.584,2.816c-0.916,0.696-1.772,1.466-2.56,2.304c-0.773,0.615-1.487,1.301-2.133,2.048
		c-3.57,3.646-6.64,7.749-9.131,12.203c-0.534,0.941-1.018,1.909-1.451,2.901c-0.363,0.599-0.677,1.227-0.939,1.877
		c-0.449,0.974-0.848,1.971-1.195,2.987c-0.256,0.597-0.512,1.195-0.683,1.707c-0.427,1.195-0.768,2.475-1.109,3.669
		c-0.182,0.5-0.325,1.014-0.427,1.536c-0.337,1.176-0.594,2.373-0.768,3.584c-0.687,3.6-1.03,7.257-1.024,10.922
		c-0.016,1.826,0.098,3.651,0.341,5.461c-0.057,0.513-0.028,1.032,0.085,1.536c0.081,1.065,0.252,2.121,0.512,3.157
		c0.03,0.694,0.145,1.382,0.341,2.048c0.25,1.415,0.592,2.811,1.024,4.181c0.256,0.939,0.512,1.792,0.853,2.731
		c0.909,2.766,2.051,5.449,3.413,8.021c0.597,1.195,1.195,2.304,1.877,3.413c0.499,0.979,1.069,1.921,1.707,2.816l-1.621,0.768
		c-28.259,0.043-51.157,22.941-51.2,51.2c0.022,28.268,22.932,51.178,51.2,51.2h-25.6c-28.268-0.022-51.178-22.932-51.2-51.2
		c0.043-28.259,22.941-51.157,51.2-51.2l1.621-0.768c-0.637-0.895-1.208-1.837-1.707-2.816c-0.683-1.109-1.28-2.218-1.877-3.413
		c-1.363-2.572-2.505-5.256-3.413-8.021c-0.341-0.939-0.597-1.792-0.853-2.731c-0.432-1.37-0.774-2.767-1.024-4.181
		c-0.196-0.666-0.311-1.354-0.341-2.048c-0.26-1.036-0.431-2.092-0.512-3.157c-0.113-0.504-0.142-1.023-0.085-1.536
		c-0.244-1.81-0.358-3.635-0.341-5.461c-0.006-3.665,0.337-7.322,1.024-10.923c0.174-1.211,0.431-2.408,0.768-3.584
		c0.102-0.522,0.245-1.036,0.427-1.536c0.341-1.195,0.683-2.475,1.109-3.669c0.171-0.512,0.427-1.109,0.683-1.707
		c0.347-1.015,0.745-2.012,1.195-2.987c0.261-0.65,0.575-1.278,0.939-1.877c0.432-0.992,0.917-1.96,1.451-2.901
		c2.49-4.454,5.561-8.557,9.131-12.203c0.646-0.747,1.361-1.433,2.133-2.048c0.788-0.838,1.644-1.608,2.56-2.304
		c1.119-1.032,2.317-1.973,3.584-2.816c0.827-0.674,1.712-1.274,2.645-1.792l1.28-0.768c1.175-0.765,2.401-1.449,3.669-2.048
		c1.451-0.768,2.987-1.451,4.523-2.133c1.536-0.597,3.157-1.195,4.779-1.707c1.625-0.517,3.277-0.944,4.949-1.28
		c1.024-0.256,1.963-0.427,2.987-0.597h0.256c1.151-0.26,2.321-0.431,3.499-0.512c1.416-0.17,2.841-0.256,4.267-0.256
		c0.623-0.071,1.25-0.1,1.877-0.085c1.365,0,2.816,0.085,4.181,0.171c0.944,0,1.887,0.086,2.816,0.256
		c0.717,0.072,1.429,0.186,2.133,0.341c0.597,0.085,1.28,0.171,1.877,0.256C122.522,87.452,123.093,87.595,123.648,87.787z"/>
	<g>
		<path style="fill:#FEDD0A;" d="M477.867,231.403c-0.043,28.259-22.941,51.157-51.2,51.2H85.333
			c-28.268-0.022-51.178-22.932-51.2-51.2c0.043-28.259,22.941-51.157,51.2-51.2l1.621-0.768c-0.637-0.895-1.208-1.837-1.707-2.816
			c-0.683-1.109-1.28-2.218-1.877-3.413c-1.363-2.572-2.505-5.256-3.413-8.021c-0.341-0.939-0.597-1.792-0.853-2.731
			c-0.432-1.37-0.774-2.767-1.024-4.181c-0.196-0.666-0.311-1.354-0.341-2.048c-0.26-1.036-0.431-2.092-0.512-3.157
			c-0.113-0.504-0.142-1.023-0.085-1.536c-0.244-1.81-0.358-3.635-0.341-5.461c-0.006-3.665,0.337-7.322,1.024-10.923
			c0.174-1.211,0.431-2.408,0.768-3.584c0.102-0.522,0.245-1.036,0.427-1.536c0.341-1.195,0.683-2.475,1.109-3.669
			c0.171-0.512,0.427-1.109,0.683-1.707c0.347-1.015,0.745-2.012,1.195-2.987c0.261-0.65,0.575-1.278,0.939-1.877
			c0.432-0.992,0.917-1.96,1.451-2.901c2.49-4.454,5.561-8.557,9.131-12.203c0.646-0.747,1.361-1.433,2.133-2.048
			c0.788-0.838,1.644-1.608,2.56-2.304c1.119-1.032,2.317-1.973,3.584-2.816c0.827-0.674,1.712-1.274,2.645-1.792l1.28-0.768
			c1.175-0.765,2.401-1.45,3.669-2.048c1.451-0.768,2.987-1.451,4.523-2.133c1.536-0.597,3.157-1.195,4.779-1.707
			c1.625-0.517,3.277-0.944,4.949-1.28h0.085c0.664,0.093,1.32,0.235,1.963,0.427c1.188,0.263,2.357,0.605,3.499,1.024
			c1.448,0.437,2.872,0.949,4.267,1.536c1.195,0.512,2.475,1.025,3.669,1.621c1.485,0.68,2.911,1.479,4.267,2.389
			c1.28,0.768,2.56,1.536,3.755,2.389c-0.071-0.766-0.1-1.535-0.085-2.304c-0.016-2.601,0.183-5.198,0.597-7.765
			c0.085-1.024,0.256-2.133,0.427-3.157c0.174-1.211,0.431-2.408,0.768-3.584c0.102-0.522,0.245-1.036,0.427-1.536
			c0.341-1.195,0.683-2.475,1.109-3.669c0.171-0.512,0.427-1.109,0.683-1.707c0.347-1.015,0.745-2.012,1.195-2.987
			c0.261-0.65,0.575-1.278,0.939-1.877c0.432-0.992,0.917-1.96,1.451-2.901c1.696-2.999,3.637-5.853,5.803-8.533
			c0.085-0.171,0.171-0.171,0.256-0.256c0.955-1.198,1.981-2.338,3.072-3.413c0.217-0.345,0.508-0.637,0.853-0.853
			c0.36-0.464,0.792-0.868,1.28-1.195c0.446-0.549,0.962-1.037,1.536-1.451c1.438-1.341,2.979-2.568,4.608-3.669
			c0.827-0.674,1.712-1.274,2.645-1.792c0.493-0.344,1.005-0.657,1.536-0.939c1.024-0.683,2.048-1.195,3.072-1.792
			c4.632-2.417,9.569-4.197,14.677-5.291c0.427-0.085,0.768-0.171,1.195-0.256c1.792-0.341,3.669-0.597,5.461-0.768
			c4.083-0.455,8.204-0.455,12.287,0c1.963,0.171,4.011,0.512,5.888,0.853h0.085c0.256,0.085,0.512,0.085,0.683,0.171
			c1.365,0.256,2.731,0.683,4.011,1.024c0.695,0.189,1.379,0.417,2.048,0.683c1.536,0.512,3.072,1.024,4.523,1.621
			c1.536,0.683,3.072,1.451,4.608,2.219c0.351,0.232,0.722,0.432,1.109,0.597c1.451,0.853,2.901,1.707,4.267,2.645
			c0.044,0.049,0.105,0.079,0.171,0.085c1.536,1.109,3.072,2.218,4.437,3.413c1.501,1.189,2.926,2.472,4.267,3.84l0.085,0.085
			c0.597,0.597,1.195,1.28,1.792,1.963l1.792,2.048c2.182,2.527,4.098,5.272,5.717,8.192c1.139-1.034,2.336-2.002,3.584-2.901
			c1.109-0.853,2.304-1.621,3.499-2.389c0.085,0,0.171,0,0.171-0.085c1.024-0.597,2.133-1.195,3.243-1.792
			c2.407-1.221,4.921-2.221,7.51-2.987h0.171c0.836-0.335,1.69-0.62,2.56-0.853h0.171c4.172-1.134,8.477-1.708,12.8-1.707
			c25.173,0.075,46.572,18.402,50.517,43.264c0.105,0.361,0.162,0.734,0.171,1.109c0.174,0.698,0.26,1.414,0.256,2.133
			c0.173,1.558,0.258,3.125,0.256,4.693v0.683c1.862-1.13,3.801-2.128,5.803-2.987c0.971-0.506,1.968-0.962,2.987-1.365
			c0.341-0.085,0.597-0.256,0.939-0.341l2.048-0.768c1.28-0.427,2.645-0.853,3.925-1.195c1.259-0.393,2.542-0.707,3.84-0.939
			c0.597-0.171,1.195-0.256,1.792-0.427h0.085c1.28,0.256,2.475,0.512,3.669,0.853h0.085c3.07,0.725,6.069,1.724,8.96,2.987
			c25.802,10.385,42.694,35.419,42.667,63.232c-0.005,4.294-0.405,8.579-1.195,12.8v4.267h9.728
			C454.934,180.226,477.844,203.136,477.867,231.403L477.867,231.403z"/>
		<path style="fill:#FEDD0A;" d="M277.333,53.91c-7.757,1.924-14.931,5.701-20.907,11.008c-1.62-2.92-3.536-5.665-5.717-8.192
			l-1.792-2.048c5.039-1.657,10.312-2.492,15.616-2.475C268.857,52.202,273.161,52.776,277.333,53.91L277.333,53.91z"/>
		<path style="fill:#FEDD0A;" d="M341.333,104.086v-0.683c0.034-2.661-0.194-5.32-0.683-7.936c3.055-0.411,6.134-0.611,9.216-0.597
			c4.323,0.005,8.636,0.405,12.885,1.195C355.201,97.474,347.953,100.189,341.333,104.086z"/>
	</g>
	<g>
		<path d="M59.658,185.153c-2.986,0.005-5.757-1.554-7.305-4.108c-6.364-10.554-9.715-22.65-9.687-34.975
			c0.005-22.889,11.479-44.254,30.558-56.9s43.225-14.891,64.309-5.98c4.609-26.573,24.433-47.94,50.587-54.523
			s53.732,2.853,70.371,24.077c16.558-10.346,37.128-11.946,55.087-4.285c17.959,7.661,31.041,23.615,35.034,42.727
			c23.579-8.803,49.974-5.493,70.65,8.859c20.675,14.352,33.006,37.923,33.005,63.091c-0.001,4.824-0.45,9.638-1.342,14.379
			c-0.876,4.629-5.336,7.673-9.965,6.801s-7.677-5.329-6.81-9.959c0.697-3.7,1.048-7.456,1.05-11.221
			c-0.037-32.974-26.759-59.696-59.733-59.733c-10.472-0.029-20.761,2.744-29.8,8.033c-2.638,1.555-5.907,1.577-8.566,0.058
			c-2.659-1.519-4.3-4.346-4.301-7.408c0.129-11.418-4.303-22.415-12.313-30.553c-8.01-8.138-18.935-12.744-30.353-12.797
			c-10.328-0.024-20.307,3.736-28.05,10.571c-1.928,1.688-4.506,2.433-7.038,2.033c-2.533-0.414-4.745-1.948-6.021-4.175
			c-11.612-20.022-35.219-29.755-57.568-23.735S153.584,71.725,153.6,94.87c-0.014,0.461-0.003,0.923,0.033,1.383
			c0.364,3.338-1.264,6.579-4.159,8.28c-2.895,1.701-6.518,1.546-9.257-0.397c-8.558-6.063-18.795-9.302-29.283-9.267
			c-28.264,0.031-51.169,22.936-51.2,51.2c-0.027,9.204,2.467,18.239,7.212,26.125c1.597,2.634,1.651,5.923,0.141,8.608
			S62.738,185.15,59.658,185.153L59.658,185.153z"/>
		<path d="M110.933,214.337c-28.838-0.006-54.562-18.132-64.269-45.287s-1.304-57.481,20.995-75.767s53.684-20.588,78.412-5.75
			c2.617,1.568,4.197,4.415,4.145,7.465c-0.053,3.05-1.73,5.841-4.399,7.318c-2.669,1.477-5.924,1.417-8.537-0.158
			c-18.549-11.128-42.089-9.4-58.814,4.318c-16.725,13.717-23.026,36.465-15.742,56.832s26.58,33.961,48.21,33.963
			c4.713,0,8.533,3.82,8.533,8.533S115.646,214.337,110.933,214.337L110.933,214.337z"/>
		<path d="M170.654,152.428c-1.744,0.001-3.446-0.534-4.875-1.533c-26.591-18.52-36.499-53.18-23.715-82.956
			c12.784-29.776,44.739-46.462,76.479-39.937s54.521,34.464,54.523,66.868c0,4.713-3.82,8.533-8.533,8.533S256,99.583,256,94.87
			c-0.003-24.303-17.09-45.255-40.895-50.147s-47.77,7.626-57.355,29.959c-9.585,22.333-2.15,48.327,17.796,62.213
			c3.059,2.133,4.379,6.006,3.259,9.563C177.685,150.016,174.384,152.433,170.654,152.428L170.654,152.428z"/>
		<path d="M187.733,291.137c-28.264-0.031-51.169-22.936-51.2-51.2c0-4.713,3.821-8.533,8.533-8.533
			c4.713,0,8.533,3.821,8.533,8.533c0.022,18.842,15.291,34.112,34.133,34.133c4.713,0,8.533,3.821,8.533,8.533
			C196.267,287.316,192.446,291.137,187.733,291.137L187.733,291.137z"/>
		<path d="M401.067,291.137c-4.713,0-8.533-3.821-8.533-8.533c0-4.713,3.82-8.533,8.533-8.533
			c18.842-0.022,34.112-15.291,34.133-34.133c0-4.713,3.821-8.533,8.533-8.533c4.713,0,8.533,3.821,8.533,8.533
			C452.236,268.201,429.331,291.106,401.067,291.137L401.067,291.137z"/>
	</g>
	<path style="fill:#FFA800;" d="M25.6,269.462c9.342,8.483,21.515,13.169,34.133,13.141h-25.6c-2.862,0.002-5.718-0.255-8.533-0.768
		V269.462z"/>
	<path style="fill:#FFFFFF;" d="M64,441.323c-7.923,4.574-17.685,4.573-25.607-0.004c-7.922-4.577-12.799-13.034-12.793-22.183
		V281.835c2.815,0.513,5.672,0.77,8.533,0.768H51.2v136.533C51.187,428.29,56.069,436.752,64,441.323L64,441.323z"/>
	<g>
		<path style="fill:#FEDD0A;" d="M460.8,281.835v103.168c0.013,9.154-4.869,17.616-12.8,22.187
			c-7.931-4.571-12.813-13.033-12.8-22.187V350.87c0.012-9.154-4.869-17.616-12.8-22.187c-1.945-1.122-4.044-1.956-6.229-2.475
			c-0.938-0.321-1.913-0.522-2.901-0.597c-2.425-0.455-4.914-0.455-7.339,0c-0.988,0.076-1.963,0.276-2.901,0.597
			c-2.19,0.503-4.291,1.338-6.229,2.475c-7.925-4.559-17.679-4.55-25.596,0.024c-7.917,4.574-12.796,13.02-12.804,22.163v82.517
			c0.013,9.154-4.869,17.616-12.8,22.187c-7.931-4.571-12.813-13.033-12.8-22.187v-48.384c0.012-9.154-4.869-17.616-12.8-22.187
			c-1.946-1.122-4.044-1.956-6.229-2.475c-0.938-0.321-1.913-0.522-2.901-0.597c-2.425-0.455-4.914-0.455-7.339,0
			c-0.988,0.076-1.963,0.276-2.901,0.597c-1.142,0.223-2.258,0.567-3.328,1.024l-0.085,0.085c-0.171,0-0.256,0.085-0.427,0.171
			c-0.216,0.08-0.418,0.196-0.597,0.341c-0.628,0.214-1.23,0.5-1.792,0.853c-7.821-4.498-17.431-4.554-25.302-0.145
			c-7.872,4.408-12.846,12.631-13.098,21.649v68.949c0.013,9.154-4.869,17.616-12.8,22.187c-7.931-4.571-12.813-13.033-12.8-22.187
			v-68.267c0-9.146-4.879-17.597-12.8-22.17s-17.679-4.573-25.6,0s-12.8,13.024-12.8,22.17c0,14.138-11.462,25.6-25.6,25.6
			s-25.6-11.462-25.6-25.6v-8.533c0-14.138-11.462-25.6-25.6-25.6s-25.6,11.462-25.6,25.6v42.667
			c0.013,9.154-4.869,17.616-12.8,22.187c-7.931-4.571-12.813-13.033-12.8-22.187V282.603h402.091
			C455.809,282.521,458.318,282.264,460.8,281.835z"/>
		<path style="fill:#FEDD0A;" d="M460.8,269.462v12.373c-2.815,0.513-5.672,0.77-8.533,0.768h-25.6
			C439.285,282.631,451.458,277.945,460.8,269.462z"/>
	</g>
	<g>
		<path d="M452.267,291.137H59.733C26.759,291.1,0.037,264.378,0,231.403c0.036-32.975,26.758-59.697,59.733-59.733
			c4.713,0,8.533,3.821,8.533,8.533c0,4.713-3.821,8.533-8.533,8.533c-23.547,0.041-42.625,19.12-42.667,42.667
			c0.028,23.553,19.114,42.639,42.667,42.667h392.533c23.547-0.041,42.625-19.12,42.667-42.667
			c-0.028-23.553-19.114-42.639-42.667-42.667h-9.729c-4.713,0-8.533-3.821-8.533-8.533c0-4.713,3.821-8.533,8.533-8.533h9.729
			c32.974,0.037,59.696,26.759,59.733,59.733C511.964,264.378,485.242,291.101,452.267,291.137L452.267,291.137z"/>
		<path d="M503.467,239.937c-4.713,0-8.533-3.82-8.533-8.533c-0.004-15.717-8.645-30.159-22.493-37.592
			c-13.848-7.433-30.66-6.653-43.761,2.03c-3.924,2.565-9.184,1.484-11.778-2.422c-2.594-3.906-1.551-9.173,2.336-11.795
			c18.339-12.162,41.879-13.259,61.269-2.853c19.39,10.405,31.49,30.627,31.494,52.632C512,236.116,508.18,239.937,503.467,239.937z
			"/>
		<path d="M264.533,291.137c-4.713,0-8.533-3.821-8.533-8.533c0-4.713,3.821-8.533,8.533-8.533
			c23.553-0.028,42.639-19.114,42.667-42.667c0-4.713,3.821-8.533,8.533-8.533c4.713,0,8.533,3.821,8.533,8.533
			C324.23,264.378,297.508,291.1,264.533,291.137L264.533,291.137z"/>
		<path d="M460.8,419.137c-18.842-0.022-34.112-15.291-34.133-34.133V350.87c0-4.713,3.82-8.533,8.533-8.533s8.533,3.82,8.533,8.533
			v34.133c0,9.426,7.641,17.067,17.067,17.067s17.067-7.641,17.067-17.067V269.462c0-4.713,3.82-8.533,8.533-8.533
			s8.533,3.82,8.533,8.533v115.541C494.912,403.846,479.642,419.115,460.8,419.137z"/>
		<path d="M358.4,467.52c-18.842-0.022-34.112-15.291-34.133-34.133v-48.383c0-4.713,3.82-8.533,8.533-8.533s8.533,3.82,8.533,8.533
			v48.383c0,9.426,7.641,17.067,17.067,17.067s17.067-7.641,17.067-17.067V350.87c0-4.713,3.821-8.533,8.533-8.533
			s8.533,3.82,8.533,8.533v82.517C392.512,452.229,377.242,467.499,358.4,467.52z"/>
		<path d="M256,487.403c-18.842-0.022-34.112-15.291-34.133-34.133v-68.267c0-4.713,3.82-8.533,8.533-8.533s8.533,3.82,8.533,8.533
			v68.267c0,9.426,7.641,17.067,17.067,17.067c9.426,0,17.067-7.641,17.067-17.067v-68.267c0-4.713,3.82-8.533,8.533-8.533
			s8.533,3.82,8.533,8.533v68.267C290.112,472.112,274.842,487.382,256,487.403z"/>
		<path d="M153.6,419.137c-18.842-0.022-34.112-15.291-34.133-34.133v-8.533c0-4.713,3.821-8.533,8.533-8.533
			c4.713,0,8.533,3.821,8.533,8.533v8.533c0,9.426,7.641,17.067,17.067,17.067c9.426,0,17.067-7.641,17.067-17.067
			c0-4.713,3.821-8.533,8.533-8.533s8.533,3.82,8.533,8.533C187.712,403.846,172.442,419.115,153.6,419.137z"/>
		<path d="M25.6,308.208c-4.713,0-8.533-3.82-8.533-8.533v-30.212c0-4.713,3.821-8.533,8.533-8.533s8.533,3.82,8.533,8.533v30.213
			C34.133,304.387,30.313,308.208,25.6,308.208z"/>
		<path d="M51.2,453.27c-18.842-0.022-34.112-15.291-34.133-34.133v-51.2c0-4.713,3.821-8.533,8.533-8.533s8.533,3.821,8.533,8.533
			v51.2c0,9.426,7.641,17.067,17.067,17.067s17.067-7.641,17.067-17.067V376.47c0-4.713,3.821-8.533,8.533-8.533
			c4.713,0,8.533,3.821,8.533,8.533v42.667C85.312,437.979,70.042,453.249,51.2,453.27z"/>
		<path d="M25.6,342.337c-2.259-0.033-4.422-0.917-6.059-2.475c-1.559-1.636-2.442-3.799-2.475-6.059
			c0.012-1.116,0.243-2.219,0.679-3.246c0.413-1.044,1.023-1.999,1.795-2.813c3.397-3.221,8.72-3.221,12.117,0
			c0.771,0.815,1.379,1.77,1.792,2.813c0.438,1.027,0.67,2.13,0.683,3.246c-0.034,2.259-0.918,4.422-2.475,6.059
			C30.022,341.419,27.859,342.303,25.6,342.337L25.6,342.337z"/>
		<path d="M76.8,427.67c-4.713,0-8.533-3.82-8.533-8.533V376.47c0-18.851,15.282-34.133,34.133-34.133s34.133,15.282,34.133,34.133
			v8.533c0,4.713-3.821,8.533-8.533,8.533c-4.713,0-8.533-3.82-8.533-8.533v-8.533c0-9.426-7.641-17.067-17.067-17.067
			s-17.067,7.641-17.067,17.067v42.667C85.333,423.85,81.513,427.67,76.8,427.67z"/>
		<path d="M384,441.92c-4.713,0-8.533-3.82-8.533-8.533V350.87c0-18.851,15.282-34.133,34.133-34.133
			c18.851,0,34.133,15.282,34.133,34.133v34.133c0,4.713-3.821,8.533-8.533,8.533s-8.533-3.82-8.533-8.533V350.87
			c0-9.426-7.641-17.067-17.067-17.067c-9.426,0-17.067,7.641-17.067,17.067v82.517C392.533,438.1,388.713,441.92,384,441.92z"/>
		<path d="M281.6,461.803c-4.713,0-8.533-3.82-8.533-8.533v-68.267c0-18.851,15.282-34.133,34.133-34.133
			c18.851,0,34.133,15.282,34.133,34.133v48.383c0,4.713-3.82,8.533-8.533,8.533s-8.533-3.82-8.533-8.533v-48.383
			c0-9.426-7.641-17.067-17.067-17.067s-17.067,7.641-17.067,17.067v68.267C290.133,457.983,286.313,461.803,281.6,461.803z"/>
		<path d="M230.4,461.803c-4.713,0-8.533-3.82-8.533-8.533v-68.267c0-9.426-7.641-17.067-17.067-17.067
			c-9.426,0-17.067,7.641-17.067,17.067c0,4.713-3.82,8.533-8.533,8.533s-8.533-3.82-8.533-8.533
			c0-18.851,15.282-34.133,34.133-34.133s34.133,15.282,34.133,34.133v68.267C238.933,457.983,235.113,461.803,230.4,461.803z"/>
	</g>
</g>
<g>
</g>
<g>
</g>
<g>
</g>
<g>
</g>
<g>
</g>
<g>
</g>
<g>
</g>
<g>
</g>
<g>
</g>
<g>
</g>
<g>
</g>
<g>
</g>
<g>
</g>
<g>
</g>
<g>
</g>
</svg>
